{"title":"Count.Yorga.Vampire.1970.REMASTERED.BDRip.x264-VoMiT","uid":13535762,"size":667253976,"categoryP":"video","categoryS":"movies","magnet":"?xt=urn:btih:f9988f846ab3e0637e9492eef4ec7f04f7e808e9&amp;dn=Count.Yorga.Vampire.1970.REMASTERED.BDRip.x264-VoMiT&amp;tr=udp%3A%2F%2Ftracker.leechers-paradise.org%3A6969&amp;tr=udp%3A%2F%2Fzer0day.ch%3A1337&amp;tr=udp%3A%2F%2Fopen.demonii.com%3A1337&amp;tr=udp%3A%2F%2Ftracker.coppersurfer.tk%3A6969&amp;tr=udp%3A%2F%2Fexodus.desync.com%3A6969","seeders":0,"leechers":7,"uploader":null,"files":5,"time":1455442459,"description":"\nVideo\r\nID                                       : 1\r\nFormat                                   : AVC\r\nFormat/Info                              : Advanced Video Codec\r\nFormat profile                           :   \r\nFormat settings, CABAC                   : Yes\r\nFormat settings, ReFrames                : 5 frames\r\nCodec ID                                 : V_MPEG4/ISO/AVC\r\nDuration                                 : 1h 32mn\r\nBit rate                                 : 879 Kbps\r\nWidth                                    : 720 pixels\r\nHeight                                   : 390 pixels\r\nDisplay aspect ratio                     : 1.85:1\r\nFrame rate mode                          : Constant\r\nFrame rate                               : 23.976 (24000/1001) fps\r\nColor space                              : YUV\r\nChroma subsampling                       : 4:2:0\r\nBit depth                                : 8 bits\r\nScan type                                : Progressive\r\nBits/(Pixel*Frame)                       : 0.131\r\nStream size                              : 583 MiB (92%)\r\nWriting library                          : x264 core 148 r2665 a01e339\r\nEncoding settings                        : cabac=1 / ref=5 / deblock=1:-3:-3 / analyse=0x3:0x113 / me=umh / subme=8 / psy=1 / psy_rd=1.00:0.25 / mixed_ref=1 / me_range=24 / chroma_me=1 / trellis=1 / 8x8dct=1 / cqm=0 / deadzone=21,11 / fast_pskip=1 / chroma_qp_offset=-4 / threads=12 / lookahead_threads=2 / sliced_threads=0 / nr=0 / decimate=1 / interlaced=0 / bluray_compat=0 / constrained_intra=0 / bframes=3 / b_pyramid=2 / b_adapt=2 / b_bias=0 / direct=3 / weightb=1 / open_gop=0 / weightp=2 / keyint=240 / keyint_min=24 / scenecut=40 / intra_refresh=0 / rc_lookahead=50 / rc=crf / mbtree=1 / crf=19.0 / qcomp=0.60 / qpmin=0 / qpmax=69 / qpstep=4 / vbv_maxrate=17500 / vbv_bufsize=17500 / crf_max=0.0 / nal_hrd=none / filler=0 / ip_ratio=1.40 / aq=1:0.50\r\nDefault                                  : Yes\r\nForced                                   : No\r\nColor range                              : Limited\r\nMatrix coefficients                      : BT.709\r\n\r\nAudio\r\nID                                       : 2\r\nFormat                                   : AAC\r\nFormat/Info                              : Advanced Audio Codec\r\nFormat profile                           : LC\r\nCodec ID                                 : A_AAC\r\nDuration                                 : 1h 32mn\r\nBit rate                                 : 74.0 Kbps\r\nChannel(s)                               : 1 channel\r\nChannel positions                        : Front: C\r\nSampling rate                            : 48.0 KHz\r\nFrame rate                               : 46.875 fps (1024 spf)\r\nCompression mode                         : Lossy\r\nDelay relative to video                  : 9ms\r\nStream size                              : 49.1 MiB (8%)\r\nLanguage                                 : English\r\nDefault                                  : Yes\r\nForced                                   : No","torrent":{"xt":"urn:btih:f9988f846ab3e0637e9492eef4ec7f04f7e808e9","amp;dn":"Count.Yorga.Vampire.1970.REMASTERED.BDRip.x264-VoMiT","amp;tr":["udp%3A%2F%2Ftracker.leechers-paradise.org%3A6969","udp%3A%2F%2Fzer0day.ch%3A1337","udp%3A%2F%2Fopen.demonii.com%3A1337","udp%3A%2F%2Ftracker.coppersurfer.tk%3A6969","udp%3A%2F%2Fexodus.desync.com%3A6969"],"infoHash":"f9988f846ab3e0637e9492eef4ec7f04f7e808e9","infoHashBuffer":{"type":"Buffer","data":[249,152,143,132,106,179,224,99,126,148,146,238,244,236,127,4,247,232,8,233]},"announce":[],"urlList":[]}}